<svg width="32" height="33" viewBox="0 0 32 33" fill="none" xmlns="http://www.w3.org/2000/svg">
<g id="chevron.down">
<path id="chevron.down_2" d="M15.9999 21.6296C16.3515 21.6196 16.6729 21.489 16.9341 21.2078L24.568 13.393C24.789 13.172 24.9095 12.8908 24.9095 12.5593C24.9095 11.8964 24.3872 11.364 23.7243 11.364C23.4028 11.364 23.0914 11.4946 22.8604 11.7256L16.01 18.7669L9.13944 11.7256C8.90841 11.5046 8.60707 11.364 8.2756 11.364C7.61265 11.364 7.09033 11.8964 7.09033 12.5593C7.09033 12.8908 7.21087 13.172 7.43185 13.393L15.0758 21.2078C15.347 21.489 15.6484 21.6296 15.9999 21.6296Z" fill="white"/>
</g>
</svg>
