<svg width="24" height="25" viewBox="0 0 24 25" fill="none" xmlns="http://www.w3.org/2000/svg">
<g id="Logout" clip-path="url(#clip0_1926_29034)">
<path id="Vector" d="M19.9575 17.3596C19.3087 17.3596 18.7837 17.8884 18.7837 18.5334L18.7575 22.5384L4.9612 22.5121L4.98745 3.2409L18.7837 3.26715V7.24215C18.7837 7.8909 19.3087 8.41965 19.9575 8.41965C20.6062 8.41965 21.135 7.8909 21.135 7.24215V3.0834C21.135 1.87215 20.1487 0.889648 18.9412 0.889648H4.8037C3.5887 0.889648 2.6062 1.87215 2.6062 3.0834V22.6959C2.6062 23.9071 3.5887 24.8896 4.79995 24.8896H18.9375C20.145 24.8896 21.1312 23.9071 21.1312 22.6959V18.5371C21.1312 17.8884 20.6025 17.3596 19.9575 17.3596Z" fill="#2B2E72"/>
<path id="Vector_2" d="M21.1838 12.5076L15.1651 8.52505C15.0226 8.4313 14.8426 8.4238 14.6926 8.5063C14.5426 8.58505 14.4526 8.7388 14.4526 8.9113V10.5013H6.15006C6.10132 10.5013 6.05459 10.5207 6.02013 10.5551C5.98567 10.5896 5.96631 10.6363 5.96631 10.6851V15.0951C5.96631 15.1963 6.04881 15.2788 6.15006 15.2788H14.4526V16.8726C14.4526 17.0413 14.5426 17.1951 14.6926 17.2776C14.7638 17.3151 14.8388 17.3301 14.9138 17.3301C15.0001 17.3301 15.0901 17.3076 15.1651 17.2551L21.1876 13.2726C21.3151 13.1901 21.3938 13.0438 21.3938 12.8901C21.3938 12.7363 21.3113 12.5901 21.1838 12.5076Z" fill="#2B2E72"/>
</g>
<defs>
<clipPath id="clip0_1926_29034">
<rect width="24" height="24" fill="white" transform="translate(0 0.889648)"/>
</clipPath>
</defs>
</svg>
